<svg id="svg1" xmlns="http://www.w3.org/2000/svg" viewBox="0 0 79.48404 101.82564">
  <defs>
    <style>
      .cls-1 {
        fill: #fef17c;
      }

      .cls-2 {
        fill: #fea4a4;
      }

      .cls-3 {
        fill: #feec49;
      }

      .cls-4 {
        fill: #feb039;
      }

      .cls-5 {
        fill: #fe6660;
      }

      .cls-6 {
        fill: #fe872f;
      }

      .cls-7 {
        fill: #fe702f;
      }

      .cls-8 {
        fill: #fe4c2f;
      }

      .cls-9 {
        fill: #fe2f2f;
      }
    </style>
  </defs>
  <g id="layer1">
    <g id="g1">
      <g id="g59">
        <g id="g86">
          <path id="path95" class="cls-1" d="M29.00094,104.297V101.934l.96669-.00216a3.95523,3.95523,0,0,0,1.14193-.11352,6.54024,6.54024,0,0,0,.21482-2.39665l.03959-2.28532,2.363-.07161,2.363-.07161.07161-3.50875.07161-3.50876,2.39633-.03925,2.39633-.03925.03832,3.548.03831,3.548,2.32539.03935c2.271.03843,2.32714.04677,2.39988.358.041.17528.09012,1.25317.10925,2.39531l.03477,2.07661,2.32724.03935,2.32723.03935v4.719H29.00094Z" transform="translate(0 -5.69365)"/>
          <path id="path94" class="cls-2" d="M5.10673,107.23291c0-.19693.03248-.27748.07224-.179a.55263.55263,0,0,1,0,.358C5.13924,107.51039,5.10673,107.42984,5.10673,107.23291Zm64.6249-.14322.01382-.358,2.3954-.03924,2.39539-.03924.03925-2.3954.03926-2.39539,2.399-.00542,2.399-.00541-2.35973.0446-2.35973.0446-.03925,2.39539-.03925,2.3954-2.38966.03924c-2.34319.03849-2.39081.04542-2.44847.358-.05.27112-.05674.26525-.045-.03924Zm-68.48574-.393c.68523-.0262,1.84527-.0263,2.57785-.00027s.17194.04747-1.24588.04763S.56064,106.72293,1.24589,106.69673Zm1.26036-19.3655,2.50626-.07674.03832-3.54456.03832-3.54456H9.667V75.44774c0-2.59469.04834-4.74755.10741-4.78414s.07519,2.10247.03578,4.75343l-.07161,4.82L7.483,80.27642l-2.25563.03943V83.666c0,1.84261-.03914,3.45213-.08693,3.57673-.07536.19637-.42332.22245-2.61367.19587L0,87.408ZM74.63862,85.0824a16.78589,16.78589,0,0,1-.09548-2.43119v-2.3357l-2.39884-.03927L69.74545,80.237l-.00235-5.9434-.00235-5.94341.03972,5.90414.03973,5.90415,2.39728.03926,2.39727.03926.03925,2.39539.03925,2.39539,2.3954.043,2.39539.043-2.375.0321A17.05579,17.05579,0,0,1,74.63862,85.0824ZM14.53627,64.59086l.07162-5.97927L17.007,58.54a13.5133,13.5133,0,0,1,2.39884.03581,13.17147,13.17147,0,0,1-2.36328.10741h-2.363v5.9434c0,3.26887-.04834,5.94343-.10741,5.94347s-.07519-2.69061-.03584-5.97921Zm50.26829-4.83355V51.52247h-2.283a13.695,13.695,0,0,1-2.34961-.10741A12.51846,12.51846,0,0,1,62.52654,51.35l2.42123.04234v8.29991c0,4.565-.03222,8.29991-.07161,8.29991S64.80455,64.28646,64.80456,59.75731ZM21.76847,44.25623l2.36318-.04462V39.41739c0-2.63682.04833-4.79427.10741-4.79432s.07519,2.175.0358,4.83349l-.0716,4.83358-2.399.00536-2.399.00536Zm27.56892.00544a52.82981,52.82981,0,0,1,6.0152-.00733,30.68733,30.68733,0,0,1-3.61635.078C49.74735,44.3161,48.66787,44.28432,49.33739,44.26167Zm-1.25714-2.43851-.03179-2.32378-2.39884-.043-2.39884-.043,2.40334-.0321c1.85568-.02478,2.41951.01007,2.47434.15293a22.25761,22.25761,0,0,1,.02729,2.39885L48.112,44.14693Zm2.6094-2.51547a23.58008,23.58008,0,0,1-.0274-2.47045l.0435-2.28568.03189,2.39884.0319,2.39884h4.453L55.18006,36.986a13.12968,13.12968,0,0,1,.06493-2.363,13.13314,13.13314,0,0,1,.10741,2.35976v2.35958l2.39884.043c1.31937.02363.2862.05742-2.29592.07507C51.73047,39.48583,50.7459,39.45429,50.68965,39.30769ZM26.49227,28.67976l.00244-6.015L28.892,22.6255l2.39727-.03926.03737-5.97575.03737-5.97575,3.54456-.03831,3.54456-.0383V8.126a13.94628,13.94628,0,0,1,.10741-2.43233,13.89489,13.89489,0,0,1,.06511,2.43107L38.58332,10.556l2.33374.04319c1.28355.02375-.324.05759-3.57229.07519l-5.906.032-.03738,5.97921-.03737,5.9792-2.39728.03926-2.39727.03926L26.52965,28.719l-.03978,5.97575Zm14.32386-3.652-2.43465-.08214,2.47045-.03054a8.72813,8.72813,0,0,1,2.47045.11268c0,.07876-.01611.12947-.0358.11267S42.15518,25.073,40.81613,25.0278Z" transform="translate(0 -5.69365)"/>
          <path id="path93" class="cls-3" d="M21.98343,104.297V101.934h4.58286V87.47623l2.39884-.03926L31.364,87.3977V80.237l-2.39884-.03926-2.39884-.03927V75.43929h4.86929V70.57692l2.39884-.03926,2.39885-.03927.03943-2.25563.03944-2.25562h4.56832l.03944,2.25562.03944,2.25563,2.363.07161,2.363.07161.07161,4.79768.07161,4.79769,2.28532.03959a6.5402,6.5402,0,0,1,2.39665.21482c.06123.09638.11231,3.86316.11352,8.37062l.00222,8.19539,2.25563.03946,2.25563.03946.03773,4.76189.03773,4.76187H50.62634v-4.719l-2.32724-.03935-2.32723-.03935-.03478-2.07661c-.01912-1.14213-.06828-2.22-.10925-2.3953-.07273-.31125-.12886-.31962-2.39987-.358l-2.32539-.03935-.03832-3.548-.03831-3.548-2.39633.03926-2.39634.03925-.07161,3.50875-.0716,3.50876-2.363.07161-2.363.07161-.03959,2.28531a6.54069,6.54069,0,0,1-.21482,2.39665,3.96005,3.96005,0,0,1-1.14193.11353l-.9667.00216V106.66H21.98344Z" transform="translate(0 -5.69365)"/>
          <path id="path92" class="cls-4" d="M21.87231,104.2612l-.0321-2.47044h4.58022l.03712-7.19653.03713-7.19653,2.363-.0716,2.363-.07161L31.2591,83.785l.03834-3.46948-2.40138-.03928L26.49468,80.237V75.36768l2.39539-.03925,2.39539-.03925.03925-2.39539.03925-2.3954,2.32362-.03934,2.32361-.03933.03943-2.2521.03942-2.2521h5.0125l.03945,2.25563.03943,2.25563,2.18039.00222a14.32234,14.32234,0,0,1,2.35741.11463c.13341.08474.18633,1.275.21482,4.8313l.0378,4.71886,2.363.0716,2.363.07161.037,8.34225.037,8.34224H53.0454c2.23672,0,2.275.00541,2.35993.32223.12563.46876.10993,8.91526-.01714,9.22561a41.897,41.897,0,0,1-.179-4.53534l-.0716-4.79768-2.25563-.03946-2.25563-.03946L50.62409,88.862c-.00119-4.50747-.05229-8.27425-.11352-8.37062a6.5402,6.5402,0,0,0-2.39665-.21482L45.8286,80.237,45.757,75.43928l-.07161-4.79768-2.363-.07161-2.363-.07161-.03944-2.25563-.03944-2.25563H36.31211l-.03943,2.25563-.03944,2.25563-2.39885.03926-2.39884.03927v4.86237H26.56626v4.71915l2.39884.03927,2.39884.03926v7.16073L28.9651,87.437l-2.39884.03927V101.934H21.99032l-.043,2.39884-.043,2.39885Z" transform="translate(0 -5.69365)"/>
          <path id="path91" class="cls-5" d="M34.48948,106.69589c2.97931-.02165,7.8128-.02159,10.74108,0s.49067.03929-5.41693.03929-8.30347-.0177-5.32415-.03935ZM2.5,87.50694a7.7849,7.7849,0,0,0,2.62456-.22016c.09013-.127.10842-.11608.0661.03931-.04915.18053-.4682.21568-2.62457.22016L0,87.55161Zm7.43525-16.8332a14.71452,14.71452,0,0,1,2.46366-.07122l2.35221.03986-2.46365.07122A11.86381,11.86381,0,0,1,9.93522,70.67374ZM64.9,68.3263a.39693.39693,0,0,1-.09328-.25062c.00135-.09471.04558-.08685.11358.02018a6.88757,6.88757,0,0,0,2.46825.21863l2.35687.04329-2.375.032A17.05407,17.05407,0,0,1,64.9,68.3263ZM19.472,51.52247c0-3.97778.01838-5.605.04083-3.61616s.02246,5.24344,0,7.23233S19.472,55.50026,19.472,51.52247Zm40.63509-.02864c-.12925-.12925-.16357-1.64714-.13842-6.12242l.03344-5.95056.074,6.015.074,6.015,2.363.077,2.363.077-2.29859.0304A7.112,7.112,0,0,1,60.10712,51.49383ZM24.27486,39.51471l.0716-4.81994,1.07411-.009,1.07411-.009-1.0383.05085-1.03831.05086V39.49c0,2.59138-.04834,4.74153-.10741,4.77811S24.23547,42.16568,24.27486,39.51471ZM55.4113,41.9271c0-1.37844.02147-1.94234.04773-1.25312s.02625,1.817,0,2.50625S55.4113,43.30554,55.4113,41.9271Zm-12.19771-9.556-.03442-7.193L40.85193,25.135l-2.32723-.04316,2.33173-.032c1.7575-.02412,2.34862.01209,2.40031.147.03772.09846.05119,3.36912.02993,7.26813L43.248,39.56406Zm9.66835,6.871,2.184-.04355V34.752l-2.14844.043a10.50176,10.50176,0,0,1-2.14821-.06816,10.86085,10.86085,0,0,1,2.18423-.0716l2.184.03953.03936,2.32724.03935,2.32723-2.25918-.03178-2.25917-.03179ZM26.598,28.644c-.01742-3.24918.01667-5.90764.07574-5.90769.09774-.00009.0956,4.45393-.00465,9.73868-.02168,1.14213-.05366-.58181-.07107-3.831ZM38.30988,17.86962v-7.015l-3.47295-.041-3.473-.041,3.54456-.03314,3.54456-.03313v7.08911c0,3.899-.03223,7.08912-.07161,7.08912S38.30988,21.72784,38.30988,17.86962Zm.35268-9.70519.00536-2.399h4.58286l.00536,2.399.00536,2.399-.04463-2.36318-.04462-2.36317h-4.4258l-.04462,2.36317-.04462,2.36318Z" transform="translate(0 -5.69365)"/>
          <path id="path90" class="cls-6" d="M23.7378,106.69625c1.0043-.02463,2.64768-.02463,3.652,0s.1826.04477-1.826.04477S22.73351,106.72088,23.7378,106.69625Zm27.85522.00046c.64983-.02653,1.7132-.02653,2.363,0s.11815.04823-1.18152.04823S50.94318,106.72323,51.593,106.69671ZM19.54878,104.2254v-2.43465H14.67949V75.58251H16.8876a20.28832,20.28832,0,0,0,2.43464-.08693c.198-.076.22653-.52693.22653-3.58037V68.42178h2.2628a7.29353,7.29353,0,0,0,2.43464-.17186c.13019-.13018.17186-2.45613.17186-9.59182v-9.42l2.32723-.03935,2.32724-.03936.0716-4.79768.07161-4.79769,2.25563-.03944,2.25563-.03944v4.87657h4.58287v2.20811a20.28868,20.28868,0,0,0,.08693,2.43465c.07788.203.94974.22653,8.378.22653H55.066v3.40851c0,2.4601.04782,3.45632.17186,3.58036a7.294,7.294,0,0,0,2.43464.17185h2.26279v8.2778c0,6.24734.04216,8.31995.17186,8.44966a7.294,7.294,0,0,0,2.43464.17185h2.26279V96.91453l-2.39884.03925-2.39884.03924-.03771,4.83349L59.93145,106.66l-2.25373.00009-2.25372.00011.04343-4.404c.02389-2.42217.00487-4.6134-.04229-4.86939l-.08573-.46545H50.77184l-.037-8.34224-.037-8.34225-2.363-.07161-2.363-.0716-.0378-4.71886c-.02849-3.55632-.08141-4.74656-.21482-4.8313a14.32483,14.32483,0,0,0-2.35741-.11463l-2.18039-.00222L41.142,68.17108l-.03944-2.25563h-5.0125l-.03943,2.25209-.03942,2.2521-2.32361.03934-2.32362.03933-.03925,2.3954-.03925,2.3954-2.39539.03924-2.3954.03926V80.2369l2.40139.03928,2.40138.03928-.03835,3.46947-.03834,3.46948-2.363.07161-2.363.07161-.03712,7.19653-.03713,7.19653H21.84022V106.66H19.54878Z" transform="translate(0 -5.69365)"/>
          <path id="path89" class="cls-7" d="M19.40557,104.309c0-1.74689-.046-2.36967-.179-2.42334-.107-.04314-.07812-.07679.07161-.08355.2293-.01033.25062.1958.25062,2.42334a20.87674,20.87674,0,0,1-.07161,2.43465A19.47647,19.47647,0,0,1,19.40557,104.309ZM60.003,101.86236l.0039-4.86928,2.39884-.03925,2.39884-.03924V73.29107H62.54178a7.294,7.294,0,0,1-2.43464-.17185c-.12971-.12971-.17186-2.20232-.17186-8.44966V56.39177H57.67249a7.29394,7.29394,0,0,1-2.43465-.17186c-.124-.124-.17185-1.12026-.17185-3.58036V49.231H46.77487c-7.4283,0-8.30016-.02357-8.37805-.22653a20.10255,20.10255,0,0,1-.05652-2.47045l.0304-2.24392.077,2.363.077,2.363,8.37805.07161,8.37805.0716.0383,3.54456.03831,3.54456h4.72107v8.36273c0,7.49359.02355,8.37176.22654,8.44965a20.301,20.301,0,0,0,2.43547.08693h2.20893L64.9128,85.07047l-.03663,11.9226-2.363.07161-2.363.07161-.07549,4.79768-.07549,4.79769ZM14.60676,88.615l.00108-13.10412,2.363-.07161,2.363-.07161.0383-3.54456.03831-3.54456h2.34521c2.00642,0,2.35778-.03272,2.43215-.22653.04781-.12459.08693-4.44251.08693-9.59537V49.08783h4.72607V44.29014c0-2.63872.04834-4.79772.10742-4.79778s.07519,2.175.0358,4.83349l-.07161,4.83358-2.32723.03936-2.32724.03935v9.42c0,7.13569-.04167,9.46164-.17185,9.59182a7.29361,7.29361,0,0,1-2.43465.17186H19.54874v3.49343c0,3.05344-.02853,3.50439-.22653,3.58037a20.2771,20.2771,0,0,1-2.43389.08693H14.681l-.03768,13.06831-.03767,13.06833ZM33.759,41.89131l.032-2.47045.0433,2.35686a6.88754,6.88754,0,0,0,.21862,2.46826c.122.07754.09918.11206-.07529.11358C33.74732,44.36158,33.7296,44.16155,33.759,41.89131Z" transform="translate(0 -5.69365)"/>
          <path id="path88" class="cls-8" d="M20.62289,106.812l-1.28893-.08035-.07161-2.363-.07161-2.36305-2.363-.07161-2.363-.0716V75.36768l2.39635-.03925,2.39635-.03925.03829-3.54111L19.334,68.207l2.32723-.03935,2.32723-.03935v-9.42c0-7.13569.04168-9.46164.17186-9.59182a7.28445,7.28445,0,0,1,2.43271-.17186h2.26086l.03773-4.76188.03774-4.76188,2.43464-.00507,2.43465-.00507-2.39884.04425-2.39885.04426v9.58861H24.27484v9.36883c0,5.15286-.03912,9.47078-.08693,9.59537-.07437.19381-.42573.22654-2.43214.22654H19.41055l-.03831,3.54456-.0383,3.54455-2.363.07161-2.363.07161-.03654,13.13992-.03653,13.13993h2.20885a20.30457,20.30457,0,0,1,2.4354.08693c.19382.07438.22653.426.22653,2.43464,0,1.29125.01612,2.35962.03581,2.37416s8.09162.065,17.93761.11222l17.90181.08579-16.68448.00379c-9.17647.00217-17.26451-.03226-17.97342-.07642Zm37.05482-.1159,2.39691-.043.03773-4.75843.03773-4.75842,2.363-.07161,2.363-.07161.03663-11.92261.03662-11.9226H62.74048a20.30109,20.30109,0,0,1-2.43547-.08693c-.203-.07789-.22653-.95606-.22653-8.44965V56.24855H55.3574L55.3191,52.704l-.03831-3.54456-8.37805-.0716-8.378-.07161L38.48534,46.689,38.446,44.36175H36.38464a18.10935,18.10935,0,0,1-2.28788-.08693c-.19551-.075-.22217-.4036-.19464-2.39884l.0319-2.31192.04335,2.25563.04335,2.25563,2.10878.00219a13.62181,13.62181,0,0,1,2.284.11353,6.54022,6.54022,0,0,1,.21483,2.39664l.03958,2.28532,8.29872.037c6.42061.02861,8.32427.07722,8.41166.21482a31.24681,31.24681,0,0,1,.11513,3.57564l.00222,3.39779,2.32724.03935,2.32723.03936.07161,8.378.07161,8.37805,2.363.07161,2.363.0716L65.056,85.06753l.03662,11.99128-.32305.07558c-.17768.04156-1.25752.09121-2.39966.11034l-2.07661.03475-.03773,4.76188-.03773,4.76189-2.46852-.0321-2.46852-.0321Zm-56.28136-.14269c.68922-.02625,1.817-.02625,2.50625,0s.12531.04775-1.25312.04775S.70713,106.57967,1.39635,106.55341Zm69.53063.00009c.64983-.02653,1.7132-.02653,2.363,0s.11815.04823-1.18152.04823S70.27714,106.58,70.927,106.5535ZM6.33725,80.34525c.64983-.02654,1.7132-.02654,2.363,0s.11815.04825-1.18152.04825S5.68741,80.37179,6.33725,80.34525Zm64.59652-.00011c.65358-.0266,1.68472-.02645,2.29144.00033s.072.04853-1.18832.04836S70.2802,80.37174,70.93377,80.34514ZM11.06332,70.74988c.64984-.02654,1.71321-.02654,2.363,0s.11816.04825-1.18152.04825S10.41349,70.77642,11.06332,70.74988ZM50.82718,37.05781c0-1.2209.022-1.72036.04881-1.10991s.02685,1.60937,0,2.21982S50.82718,38.27871,50.82718,37.05781ZM26.77867,28.53655l.00244-5.72858,2.25578-.00563,2.25578-.00564-2.21835.04507-2.21836.04507L26.8161,28.576l-.03985,5.68915Z" transform="translate(0 -5.69365)"/>
          <path id="path87" class="cls-9" d="M5.20061,107.05389l-.04488-.46545-2.54206-.03908-2.542-.03908V87.61258H5.22733V80.45185H9.81019V70.86341l2.39885-.03927,2.39884-.03926.03735-6.05081.03735-6.05081h4.86618V44.36175h4.8693V34.76638h1.06907c.91038,0,1.09107-.04112,1.21732-.277a52.7087,52.7087,0,0,0,.14825-5.93977V22.88685l2.25563-.03944L31.364,22.808l.03738-5.9792.03738-5.97921h6.86847l.03715,7.12492.03714,7.12492,2.39884.03927,2.39884.03926v14.3076l2.39885.03926,2.39884.03927.03926,2.39884.03927,2.39885H55.4956V39.49246h4.43654l.03736,6.05081.03736,6.05081,2.39884.03927,2.39885.03926V68.42178H69.6707l.03737,5.9792.03738,5.97921,2.363.07161,2.363.07161.03935,2.32723.03936,2.32723h4.8622v16.61289H74.54314v4.71915l-2.39884.03924-2.39885.03925-.04487.46545-.04488.46544H5.24548Zm51.2598-.20225,3.75748-.09425.03771-4.73894.0377-4.739,2.07661-.03475c1.14214-.01911,2.222-.06878,2.39966-.11034l.323-.07558L65.056,85.06755l-.03662-11.99127-2.363-.07161-2.363-.07161-.07161-8.378L60.15008,56.177l-2.32723-.03935-2.32724-.03935-.00222-3.3978a31.24681,31.24681,0,0,0-.11513-3.57564c-.08739-.13759-1.991-.18621-8.41166-.21482l-8.29872-.037-.03959-2.28532a6.5402,6.5402,0,0,0-.21482-2.39665,13.66252,13.66252,0,0,0-2.28764-.11352l-2.11241-.0022-.00222-2.184a14.05923,14.05923,0,0,0-.11808-2.36661c-.08812-.13886-.69651-.17316-2.53986-.14322l-2.424.03938-.03774,4.76188-.03773,4.76189H26.593a7.28463,7.28463,0,0,0-2.43271.17185c-.13018.13019-.17186,2.45614-.17186,9.59183v9.42l-2.32723.03935-2.32723.03935-.0383,3.54111-.03829,3.54111-2.39635.03925-2.39635.03925v26.49468l2.363.07161,2.363.07161.07161,2.363.07161,2.363,1.28893.08034c1.88481.1175,31.43088.15018,35.83752.03962ZM50.91275,36.9862V34.76638H55.066V39.206H50.91275ZM38.73952,8.2001v-2.363h4.43965v4.72607H38.73952Z" transform="translate(0 -5.69365)"/>
        </g>
      </g>
    </g>
  </g>
</svg>
