<svg id="svg1" xmlns="http://www.w3.org/2000/svg" viewBox="0 0 84.75 150.74998">
  <defs>
    <style>
      .cls-1 {
        fill: #fef17d;
      }

      .cls-2 {
        fill: #fea0a0;
      }

      .cls-3 {
        fill: #feec49;
      }

      .cls-4 {
        fill: #fedd45;
      }

      .cls-5 {
        fill: #fec43e;
      }

      .cls-6 {
        fill: #fe872f;
      }

      .cls-7 {
        fill: #fe5858;
      }

      .cls-8 {
        fill: #fe552f;
      }

      .cls-9 {
        fill: #fe2f2f;
      }
    </style>
  </defs>
  <g id="layer1">
    <g id="g1">
      <g id="g59">
        <g id="g95">
          <path id="path104" class="cls-1" d="M26.25,142.38371v-9h6v-8.25h6v-6h6v3c0,2.92857.0625,3,2.625,3H49.5v8.25h6v18H26.25Z" transform="translate(0 -6.63372)"/>
          <path id="path103" class="cls-2" d="M73.04805,99.63371c0-5.98125.11648-8.42812.25883-5.43749s.14234,7.88437,0,10.875S73.04805,105.615,73.04805,99.63371Zm-61.52056,0c0-4.33125.124-6.10312.27544-3.9375a68.27632,68.27632,0,0,1,0,7.875C11.65141,105.73684,11.52749,103.965,11.52749,99.63371ZM43.74,61.38372c0-2.68125.13612-3.77813.30249-2.4375a23.869,23.869,0,0,1,0,4.875C43.87617,65.16184,43.74,64.065,43.74,61.38372Zm-2.942-44.25c0-5.98125.11648-8.42813.25883-5.4375s.14235,7.88438,0,10.875S40.79805,23.115,40.79805,17.13372Z" transform="translate(0 -6.63372)"/>
          <path id="path102" class="cls-3" d="M21,143.88371v-7.5H15v-14.25h3c2.5,0,3-.25,3-1.5,0-1.21428.5-1.5,2.625-1.5,2.56249,0,2.625-.07143,2.625-3s-.0625-3-2.625-3-2.625-.07143-2.625-3,.0625-3,2.625-3,2.625.07143,2.625,3v3h6v-6h6v-3c0-2.92857.0625-3,2.625-3s2.625.07144,2.625,3v3h12v-6h-6v-6h6v6h6v6h-3c-2.5,0-3,.25-3,1.5s.5,1.5,3,1.5h3v6h6v20.25h-6v15h-6v-18h-6v-8.25H46.875c-2.56249,0-2.625-.07144-2.625-3v-3h-6v6h-6v8.25h-6v18H21Z" transform="translate(0 -6.63372)"/>
          <path id="path101" class="cls-4" d="M20.52748,143.88371c0-4.33125.124-6.10312.27548-3.93751a68.2765,68.2765,0,0,1,0,7.875C20.65144,149.98683,20.52748,148.21495,20.52748,143.88371Zm-.15905-23.25c0-1.03125.17023-1.45312.3783-.9375a2.89406,2.89406,0,0,1,0,1.875c-.20807.51563-.3783.09374-.3783-.9375Zm.08586-10.5c0-1.85624.14626-2.61562.325-1.6875a10.68825,10.68825,0,0,1,0,3.375C20.60053,112.74933,20.45429,111.99,20.45429,110.13371Z" transform="translate(0 -6.63372)"/>
          <path id="path100" class="cls-5" d="M43.70428,104.13372c0-1.85625.14626-2.61562.325-1.68751a10.68825,10.68825,0,0,1,0,3.375C43.85056,106.74934,43.70428,105.99,43.70428,104.13372Z" transform="translate(0 -6.63372)"/>
          <path id="path99" class="cls-6" d="M17.25,148.38371c0-2.92856-.0625-3-2.625-3H12v-32.25h5.25v-9h6v-23.25h6v-6h6v20.25h4.5c4,0,4.5-.16668,4.5-1.5,0-1.21428.5-1.5,2.625-1.5,2.56249,0,2.625-.07143,2.625-3v-3h3c2.92857,0,3-.0625,3-2.625s.07143-2.625,3-2.625h3v8.25h6v21h5.25v29.25H67.5v12h-6v-15h6v-20.25h-6v-6h-3c-2.5,0-3-.25-3-1.5,0-1.36666-.5-1.5-5.625-1.5H44.25v-6h-6v6h-6v6h-6v6h-3c-2.5,0-3,.25-3,1.5,0,1.21428-.5,1.5-2.625,1.5H15v14.25h5.25v7.5c0,7-.1,7.5-1.5,7.5C17.5,151.38372,17.25,150.88372,17.25,148.38371Zm9-38.25v-3h-6v6h6Zm35.25-6v-3h-6v-6h-6v6h6v6h6Z" transform="translate(0 -6.63372)"/>
          <path id="path98" class="cls-7" d="M1.3125,127.60441a10.68713,10.68713,0,0,1,3.375,0c.92813.17877.16875.325-1.68751.325S.38437,127.78316,1.3125,127.60441ZM68.82125,89.35327a8.197,8.197,0,0,1,3,.015c.71707.18771-.04624.3345-1.69625.32617-1.65-.00822-2.23669-.16192-1.30376-.34131Z" transform="translate(0 -6.63372)"/>
          <path id="path97" class="cls-8" d="M11.56962,129.25871c.00056-9.075.10887-12.68441.24066-8.02092s.13134,12.08848-.001,16.5-.2402.59593-.23964-8.47907Zm61.49554-4.5c-.00068-8.25.10891-11.72733.24349-7.7274s.13512,10.74994.00121,15S73.06583,133.00871,73.06516,124.75871Zm-29.44674-31.125c0-1.03126.17023-1.45313.3783-.9375a2.89406,2.89406,0,0,1,0,1.875c-.20807.51563-.3783.09374-.3783-.9375ZM33.56252,42.10442a10.686,10.686,0,0,1,3.375,0c.92812.17876.16875.325-1.68751.325S32.63439,42.28318,33.56252,42.10442Z" transform="translate(0 -6.63372)"/>
          <path id="path96" class="cls-9" d="M6,154.38371v-3H0v-23.25H6v-21h6v-15h5.25v-17.25h6v-6h6v-6h9v-3c0-2.92857.0625-3,2.625-3H43.5v4.5c0,4,.16667,4.5,1.5,4.5s1.5.5,1.5,4.5v4.5h15v-6h6v20.25h-6v-8.25h-3c-2.92857,0-3,.0625-3,2.625s-.07143,2.625-3,2.625h-3v6h-3c-2.5,0-3,.25-3,1.5,0,1.31819-.5,1.5-4.125,1.5H35.25v-20.25h-6v6h-6v23.25h-6v9h-6v32.25h6v6H67.5v-12h6v-29.25h5.25v15h6v26.25h-6v6H6Zm61.5-54.375v-10.125h5.25v20.25H67.5Zm-35.25-54.75c0-2.5625.07143-2.625,3-2.625s3,.06251,3,2.625-.07143,2.625-3,2.625S32.25,47.82122,32.25,45.25872Zm-6-15v-11.625h6v-6H40.5v15H32.25v14.25h-6Zm15-20.625c0-2.92857.06251-3,2.625-3s2.625.07143,2.625,3-.0625,3-2.625,3S41.25,12.56229,41.25,9.63372Z" transform="translate(0 -6.63372)"/>
        </g>
      </g>
    </g>
  </g>
</svg>
