<svg id="svg1" xmlns="http://www.w3.org/2000/svg" viewBox="0 0 96.74997 138.75006">
  <defs>
    <style>
      .cls-1 {
        fill: #fef17d;
      }

      .cls-2 {
        fill: #fea9a9;
      }

      .cls-3 {
        fill: #feed49;
      }

      .cls-4 {
        fill: #fe9292;
      }

      .cls-5 {
        fill: #fedc44;
      }

      .cls-6 {
        fill: #fec83f;
      }

      .cls-7 {
        fill: #fe872f;
      }

      .cls-8 {
        fill: #fe552f;
      }

      .cls-9 {
        fill: #fe2f2f;
      }
    </style>
  </defs>
  <g id="layer1">
    <g id="g1">
      <g id="g59">
        <g id="g104">
          <path id="path113" class="cls-1" d="M32.25,126.75v-6h6V112.5h6v-6h6v3c0,2.92857.06263,3,2.625,3,2.5,0,2.625.125,2.625,2.625,0,2.56249.07145,2.625,3,2.625h3v15h-29.25Z"/>
          <path id="path112" class="cls-2" d="M17.548,84c0-5.98126.1165-8.42813.25881-5.4375s.1423,7.88438,0,10.875S17.548,89.98126,17.548,84ZM78.913,75.60778,78.75,65.34056l-2.8125-.2942-2.8125-.29419,2.836-.12609c1.73774-.07724,2.98127.25234,3.211.85109a84.812,84.812,0,0,1,.13945,10.6875L79.07591,85.875ZM42.57124,64.71955a8.197,8.197,0,0,1,3,.015c.7171.18771-.04619.3345-1.69622.32617-1.65-.00821-2.23671-.16191-1.30378-.34131Z"/>
          <path id="path111" class="cls-3" d="M26.83367,122.4375,26.625,112.125l-2.8125-.23277L21,111.65945V97.5h3c2.5,0,3-.25,3-1.5,0-1.21428.5-1.5,2.625-1.5s2.625.28572,2.625,1.5c0,1.25.5,1.5,3,1.5s3-.25,3-1.5a1.32583,1.32583,0,0,1,1.5-1.5c1.25,0,1.5-.5,1.5-3v-3h9v-6H58.5v-3c0-2.5.25-3,1.5-3,1.2143,0,1.5-.5,1.5-2.625,0-2.5625.07146-2.625,3-2.625s3,.0625,3,2.625c0,2.125.28569,2.625,1.5,2.625,1.25,0,1.5.5,1.5,3s-.25,3-1.5,3c-1.4,0-1.5.5-1.5,7.5v7.5h6v7.125c0,6.625-.10514,7.125-1.5,7.125-1.25,0-1.5.5-1.5,3s-.25,3-1.5,3c-1.4,0-1.5.5-1.5,7.5v7.5h-6v-15h-3c-2.92855,0-3-.0625-3-2.625,0-2.5-.125-2.625-2.625-2.625-2.56254,0-2.625-.07143-2.625-3v-3h-6v6h-6v8.25h-6v12H27.04226Z"/>
          <path id="path110" class="cls-4" d="M46.73238,60.375c.00285-2.475.14429-3.39708.31116-2.04907a19.923,19.923,0,0,1-.00852,4.5c-.1712,1.127-.3077.02409-.30351-2.45094Z"/>
          <path id="path109" class="cls-5" d="M26.54593,122.625c.00117-5.775.11877-8.03836.26164-5.02968.14258,3.00867.14174,7.73367-.00212,10.5-.144,2.76632-.2608.30468-.25937-5.47032ZM26.36848,96c0-1.03125.17036-1.45312.37832-.9375a2.89409,2.89409,0,0,1,0,1.875c-.20807.51562-.37832.09374-.37832-.93751Zm36.44407-25.2793a10.68772,10.68772,0,0,1,3.375,0c.92813.17876.16865.325-1.68748.325C62.64382,71.04572,61.88443,70.89945,62.81255,70.72069Z"/>
          <path id="path108" class="cls-6" d="M22.32125,111.96955a8.19693,8.19693,0,0,1,3,.015c.71707.18771-.0462.3345-1.69622.32617-1.65-.00821-2.23672-.16191-1.30377-.34131Zm48.74126.03374a2.89416,2.89416,0,0,1,1.875,0c.51563.20806.09382.37829-.93751.37829-1.03125,0-1.45314-.17022-.93752-.37829ZM49.70427,85.5c0-1.85625.14628-2.61563.325-1.6875a10.68117,10.68117,0,0,1,0,3.375C49.85046,88.11563,49.70427,87.35624,49.70427,85.5Z"/>
          <path id="path107" class="cls-7" d="M23.25,129.75c0-2.92857-.06237-3-2.625-3H18V94.5h5.25v-9h3c2.5,0,3-.25,3-1.5s.5-1.5,3-1.5h3v-6h7.5c7,0,7.5-.1,7.5-1.5,0-1.21429.5-1.5,2.625-1.5,2.5625,0,2.625-.07143,2.625-3v-3h6V56.25h6V70.5h6v21h5.25v29.25H73.5v12h-6v-7.5c0-7,.1-7.5,1.5-7.5,1.21429,0,1.5-.5,1.5-2.625s.28573-2.625,1.5-2.625c1.4,0,1.5-.5,1.5-7.5V97.5h-6V90c0-7,.1-7.5,1.5-7.5,1.25,0,1.5-.5,1.5-3s-.25-3-1.5-3c-1.25,0-1.5-.5-1.5-3v-3h-6v3c0,2.5-.25,3-1.5,3-1.25,0-1.5.5-1.5,3v3h-9v6h-8.25v3c0,2.5-.25,3-1.5,3a1.32582,1.32582,0,0,0-1.5,1.5c0,1.25-.5,1.5-3,1.5s-3-.25-3-1.5-.5-1.5-3-1.5-3,.25-3,1.5c0,1.21428-.5,1.5-2.625,1.5h-2.625v15h5.25v10.125c0,9.625-.074,10.125-1.5,10.125-1.25,0-1.5-.5-1.5-3Z"/>
          <path id="path106" class="cls-8" d="M17.56962,110.625c.00057-9.075.10885-12.68442.24067-8.02092s.13125,12.08848-.001,16.5c-.13238,4.41151-.2401.59593-.23954-8.47907Zm61.49552-4.5c-.00065-8.25.10887-11.72733.24351-7.72739s.13521,10.74993.00122,15c-.13379,4.25007-.24408.9774-.24464-7.2726ZM49.61845,75c0-1.03126.17038-1.45313.37829-.93751a2.89438,2.89438,0,0,1,0,1.875C49.7887,76.45312,49.61845,76.03124,49.61845,75Z"/>
          <path id="path105" class="cls-9" d="M6,135.75v-3H0v-18H6V106.5h6v-12h5.25v32.25h6v6H73.5v-12h6V91.5h-6v-21h-6V56.25h-6V67.5h-6v6h-3c-2.5,0-3,.25-3,1.5,0,1.39473-.5,1.5-7.125,1.5H35.25v6h-3c-2.5,0-3,.25-3,1.5s-.5,1.5-3,1.5h-3v9h-5.25v-21h2.625c2.56252,0,2.625-.07143,2.625-3v-3h9V59.25h9v6h6v-9H55.5v-12h9v9h9v12h5.25V85.5h6v15h6v6h6v20.25h-6v6h-6v6H6ZM64.5,29.25v-6h-6V0h6V12h6V35.25h-6Z"/>
        </g>
      </g>
    </g>
  </g>
</svg>
